<svg width="42" height="42" viewBox="0 0 42 42" fill="none" xmlns="http://www.w3.org/2000/svg">
<mask id="mask0_64_182" style="mask-type:alpha" maskUnits="userSpaceOnUse" x="0" y="0" width="42" height="42">
<rect width="42" height="42" fill="#D9D9D9"/>
</mask>
<g mask="url(#mask0_64_182)">
<path d="M22.05 21L15.225 14.175C14.9042 13.8542 14.7438 13.4459 14.7438 12.95C14.7438 12.4542 14.9042 12.0459 15.225 11.725C15.5459 11.4042 15.9542 11.2438 16.45 11.2438C16.9459 11.2438 17.3542 11.4042 17.675 11.725L25.725 19.775C25.9 19.95 26.024 20.1396 26.0969 20.3438C26.1698 20.5479 26.2063 20.7667 26.2063 21C26.2063 21.2334 26.1698 21.4521 26.0969 21.6563C26.024 21.8604 25.9 22.05 25.725 22.225L17.675 30.275C17.3542 30.5959 16.9459 30.7563 16.45 30.7563C15.9542 30.7563 15.5459 30.5959 15.225 30.275C14.9042 29.9542 14.7438 29.5459 14.7438 29.05C14.7438 28.5542 14.9042 28.1459 15.225 27.825L22.05 21Z" fill="auto"/>
</g>
</svg>
