<svg width="112" height="112" viewBox="0 0 112 112" fill="auto" xmlns="http://www.w3.org/2000/svg">
<mask id="mask0_127_195" style="mask-type:alpha" maskUnits="userSpaceOnUse" x="0" y="0" width="112" height="112">
<rect width="111.03" height="111.03" fill="auto"/>
</mask>
<g mask="url(#mask0_127_195)">
<path d="M49.9635 55.515L68.0059 73.5574C68.854 74.4055 69.2781 75.485 69.2781 76.7957C69.2781 78.1065 68.854 79.186 68.0059 80.0341C67.1577 80.8823 66.0783 81.3063 64.7675 81.3063C63.4567 81.3063 62.3773 80.8823 61.5291 80.0341L40.2484 58.7534C39.7858 58.2907 39.4581 57.7896 39.2653 57.2498C39.0725 56.7101 38.9762 56.1318 38.9762 55.515C38.9762 54.8981 39.0725 54.3199 39.2653 53.7801C39.4581 53.2404 39.7858 52.7392 40.2484 52.2766L61.5291 30.9959C62.3773 30.1477 63.4567 29.7236 64.7675 29.7236C66.0783 29.7236 67.1577 30.1477 68.0059 30.9959C68.854 31.844 69.2781 32.9235 69.2781 34.2342C69.2781 35.545 68.854 36.6245 68.0059 37.4726L49.9635 55.515Z" fill="auto"/>
</g>
</svg>
