<svg width="auto" height="auto" viewBox="0 0 112 112" fill="auto" xmlns="http://www.w3.org/2000/svg">
<mask id="mask0_56_30180" style="mask-type:alpha" maskUnits="userSpaceOnUse" x="0" y="0" width="112" height="112">
<rect width="111.03" height="111.03" fill="auto"/>
</mask>
<g mask="url(#mask0_56_30180)">
<path d="M58.2907 55.5152L40.2483 37.4728C39.4002 36.6247 38.9761 35.5452 38.9761 34.2345C38.9761 32.9237 39.4002 31.8442 40.2483 30.9961C41.0965 30.1479 42.1759 29.7239 43.4867 29.7239C44.7975 29.7239 45.8769 30.1479 46.7251 30.9961L68.0058 52.2768C68.4684 52.7395 68.7961 53.2407 68.9889 53.7804C69.1817 54.3201 69.278 54.8984 69.278 55.5152C69.278 56.1321 69.1817 56.7103 68.9889 57.2501C68.7961 57.7898 68.4684 58.291 68.0058 58.7536L46.7251 80.0343C45.8769 80.8825 44.7975 81.3066 43.4867 81.3066C42.1759 81.3066 41.0965 80.8825 40.2483 80.0343C39.4002 79.1862 38.9761 78.1067 38.9761 76.796C38.9761 75.4852 39.4002 74.4057 40.2483 73.5576L58.2907 55.5152Z" fill="auto"/>
</g>
</svg>
