<svg width="22" height="22" viewBox="0 0 22 22" fill="none" xmlns="http://www.w3.org/2000/svg">
<g clip-path="url(#clip0_127_218)">
<path d="M19.5055 0.897604C18.5997 -0.00818589 17.1355 -0.00818589 16.2297 0.897604L14.9848 2.13841L19.0339 6.18759L20.2789 4.94264C21.1847 4.03685 21.1847 2.5727 20.2789 1.66691L19.5055 0.897604ZM7.13045 9.99687C6.87816 10.2492 6.68376 10.5594 6.57209 10.9027L5.34783 14.5755C5.22788 14.9312 5.32301 15.3241 5.58771 15.5929C5.85242 15.8618 6.24534 15.9528 6.60518 15.8328L10.278 14.6085C10.6171 14.4969 10.9273 14.3025 11.1838 14.0502L18.1033 7.12646L14.05 3.07316L7.13045 9.99687ZM3.97053 2.64714C1.77843 2.64714 -6.10352e-05 4.42564 -6.10352e-05 6.61773V17.206C-6.10352e-05 19.3981 1.77843 21.1766 3.97053 21.1766H14.5588C16.7509 21.1766 18.5294 19.3981 18.5294 17.206V13.2354C18.5294 12.5033 17.9379 11.9119 17.2058 11.9119C16.4737 11.9119 15.8823 12.5033 15.8823 13.2354V17.206C15.8823 17.938 15.2908 18.5295 14.5588 18.5295H3.97053C3.23845 18.5295 2.647 17.938 2.647 17.206V6.61773C2.647 5.88566 3.23845 5.2942 3.97053 5.2942H7.94112C8.67319 5.2942 9.26464 4.70275 9.26464 3.97067C9.26464 3.2386 8.67319 2.64714 7.94112 2.64714H3.97053Z" fill="#F3EBFF"/>
</g>
<defs>
<clipPath id="clip0_127_218">
<rect width="21.1765" height="21.1765" fill="white"/>
</clipPath>
</defs>
</svg>
