<svg width="39" height="39" viewBox="0 0 39 39" fill="none" xmlns="http://www.w3.org/2000/svg">
<g clip-path="url(#clip0_127_238)">
<path d="M19.3208 38.6415C24.4449 38.6415 29.3592 36.6059 32.9826 32.9826C36.6059 29.3592 38.6415 24.4449 38.6415 19.3208C38.6415 14.1966 36.6059 9.28226 32.9826 5.65892C29.3592 2.03557 24.4449 0 19.3208 0C14.1966 0 9.28226 2.03557 5.65892 5.65892C2.03557 9.28226 0 14.1966 0 19.3208C0 24.4449 2.03557 29.3592 5.65892 32.9826C9.28226 36.6059 14.1966 38.6415 19.3208 38.6415ZM29.0566 17.434C29.766 18.1434 29.766 19.2906 29.0566 19.9925C28.3472 20.6943 27.2 20.7019 26.4981 19.9925L21.1396 14.634V28.3774C21.1396 29.3811 20.3321 30.1887 19.3283 30.1887C18.3245 30.1887 17.517 29.3811 17.517 28.3774V14.634L12.1585 19.9925C11.4491 20.7019 10.3019 20.7019 9.6 19.9925C8.89811 19.283 8.89057 18.1358 9.6 17.434L18.0377 8.98113C18.7472 8.2717 19.8943 8.2717 20.5962 8.98113L29.0566 17.434Z" fill="auto"/>
</g>
<defs>
<clipPath id="clip0_127_238">
<rect width="38.6415" height="38.6415" fill="white"/>
</clipPath>
</defs>
</svg>
