<svg width="auto" height="auto" viewBox="0 0 32 32" fill="none" xmlns="http://www.w3.org/2000/svg">
<circle cx="16" cy="16" r="16" fill="#61596D"/>
<mask id="mask0_2031_18" style="mask-type:alpha" maskUnits="userSpaceOnUse" x="4" y="4" width="24" height="24">
<rect x="4" y="4" width="24" height="24" fill="#D9D9D9"/>
</mask>
<g mask="url(#mask0_2031_18)">
<path d="M15.75 15.75C14.65 15.75 13.7083 15.3583 12.925 14.575C12.1417 13.7917 11.75 12.85 11.75 11.75C11.75 10.65 12.1417 9.70833 12.925 8.925C13.7083 8.14167 14.65 7.75 15.75 7.75C16.85 7.75 17.7917 8.14167 18.575 8.925C19.3583 9.70833 19.75 10.65 19.75 11.75C19.75 12.85 19.3583 13.7917 18.575 14.575C17.7917 15.3583 16.85 15.75 15.75 15.75ZM7.75 21.75V20.95C7.75 20.3833 7.89583 19.8625 8.1875 19.3875C8.47917 18.9125 8.86667 18.55 9.35 18.3C10.3833 17.7833 11.4333 17.3958 12.5 17.1375C13.5667 16.8792 14.65 16.75 15.75 16.75C16.85 16.75 17.9333 16.8792 19 17.1375C20.0667 17.3958 21.1167 17.7833 22.15 18.3C22.6333 18.55 23.0208 18.9125 23.3125 19.3875C23.6042 19.8625 23.75 20.3833 23.75 20.95V21.75C23.75 22.3 23.5542 22.7708 23.1625 23.1625C22.7708 23.5542 22.3 23.75 21.75 23.75H9.75C9.2 23.75 8.72917 23.5542 8.3375 23.1625C7.94583 22.7708 7.75 22.3 7.75 21.75Z" fill="#F3EBFF"/>
</g>
</svg>
