<svg width="auto" height="auto" viewBox="0 0 834 1024" fill="none" xmlns="http://www.w3.org/2000/svg">
<g filter="url(#filter0_f_64_223)">
<path d="M578.544 407.455C653.021 598.957 625.289 962.328 454.797 1039.73C284.304 1117.13 149.928 1121.17 75.4516 929.665C0.975171 738.163 72.8334 573.371 243.325 495.971C413.818 418.571 504.068 215.954 578.544 407.455Z" fill="url(#paint0_linear_64_223)" fill-opacity="0.8"/>
<path d="M438.296 672.205C305.823 813.467 319.34 534.738 188.835 383.925C58.3301 233.112 -147.499 244.11 -15.0265 102.848C117.446 -38.4146 421.294 36.1462 551.798 186.959C682.303 337.772 570.768 530.943 438.296 672.205Z" fill="url(#paint1_linear_64_223)" fill-opacity="0.8"/>
<path d="M341.696 211.603C423.727 399.451 189.468 289.855 22.4621 375.704C-144.544 461.552 -195.265 682.091 -277.297 494.244C-359.328 306.396 -206.856 11.8978 -39.8501 -73.9508C127.156 -159.799 259.665 23.756 341.696 211.603Z" fill="url(#paint2_linear_64_223)" fill-opacity="0.8"/>
<path d="M-66.959 599.286C77.3487 472.609 -25.7353 723.982 91.6019 887.176C208.939 1050.37 432.769 1034.29 288.461 1160.97C144.154 1287.65 173.167 1499.09 55.83 1335.89C-61.5071 1172.7 -211.267 725.963 -66.959 599.286Z" fill="url(#paint3_linear_64_223)" fill-opacity="0.8"/>
<path d="M187.062 381.415C363.112 454.482 113.832 482.898 52.6029 675.685C-8.62627 868.472 125.927 1072.2 -50.1228 999.129C-226.173 926.062 -372.669 1059.45 -311.44 866.668C-250.211 673.881 11.0118 308.348 187.062 381.415Z" fill="url(#paint4_linear_64_223)" fill-opacity="0.8"/>
</g>
<defs>
<filter id="filter0_f_64_223" x="-978.782" y="-245.691" width="1746.25" height="1790.98" filterUnits="userSpaceOnUse" color-interpolation-filters="sRGB">
<feFlood flood-opacity="0" result="BackgroundImageFix"/>
<feBlend mode="normal" in="SourceGraphic" in2="BackgroundImageFix" result="shape"/>
<feGaussianBlur stdDeviation="75" result="effect1_foregroundBlur_64_223"/>
</filter>
<linearGradient id="paint0_linear_64_223" x1="238.838" y1="441.873" x2="500.775" y2="1018.85" gradientUnits="userSpaceOnUse">
<stop stop-color="#310273"/>
<stop offset="1" stop-color="#06B58A"/>
</linearGradient>
<linearGradient id="paint1_linear_64_223" x1="478.815" y1="102.618" x2="109.072" y2="422.572" gradientUnits="userSpaceOnUse">
<stop stop-color="#310273"/>
<stop offset="1" stop-color="#06B58A"/>
</linearGradient>
<linearGradient id="paint2_linear_64_223" x1="-133.247" y1="-25.9407" x2="104.174" y2="435.929" gradientUnits="userSpaceOnUse">
<stop stop-color="#310273"/>
<stop offset="1" stop-color="#06B58A"/>
</linearGradient>
<linearGradient id="paint3_linear_64_223" x1="-102.412" y1="1115.81" x2="227.339" y2="878.718" gradientUnits="userSpaceOnUse">
<stop stop-color="#310273"/>
<stop offset="1" stop-color="#06B58A"/>
</linearGradient>
<linearGradient id="paint4_linear_64_223" x1="-228.866" y1="606.674" x2="155.772" y2="728.835" gradientUnits="userSpaceOnUse">
<stop stop-color="#310273"/>
<stop offset="1" stop-color="#06B58A"/>
</linearGradient>
</defs>
</svg>
